<svg version="1.1" xmlns="http://www.w3.org/2000/svg" xmlns:xlink="http://www.w3.org/1999/xlink" width="68.05899" height="103.06322" viewBox="0,0,68.05899,103.06322"><g transform="translate(-205.97057,-127.91779)"><g data-paper-data="{&quot;isPaintingLayer&quot;:true}" fill-rule="nonzero" stroke-linecap="butt" stroke-linejoin="miter" stroke-miterlimit="10" stroke-dasharray="" stroke-dashoffset="0" style="mix-blend-mode: normal"><path d="M205.97058,230.98101v-101.96199h68.05899v101.96199z" fill="#dedede" stroke="none" stroke-width="NaN"/><path d="M211.93802,224.1498v-88.29958h56.12398v88.29958z" fill="#ffffff" stroke="#ffffff" stroke-width="1.5"/><text transform="translate(206.8931,146.41779) scale(0.5,0.5)" font-size="40" xml:space="preserve" fill="#000000" fill-rule="nonzero" stroke="#000000" stroke-width="2" stroke-linecap="butt" stroke-linejoin="miter" stroke-miterlimit="10" stroke-dasharray="" stroke-dashoffset="0" font-family="Serif" font-weight="normal" text-anchor="start" style="mix-blend-mode: normal"><tspan x="0" dy="0">J</tspan></text><text transform="translate(272.19095,212.04755) rotate(-180) scale(0.5,0.5)" font-size="40" xml:space="preserve" fill="#000000" fill-rule="nonzero" stroke="#000000" stroke-width="2" stroke-linecap="butt" stroke-linejoin="miter" stroke-miterlimit="10" stroke-dasharray="" stroke-dashoffset="0" font-family="Serif" font-weight="normal" text-anchor="start" style="mix-blend-mode: normal"><tspan x="0" dy="0">J</tspan></text><path d="M234.37586,153.29678l0.06461,-0.00021l0.02811,-1.04144c0.22538,0.97376 0.27563,2.47026 0.30316,2.82698c0.22143,2.86909 0.40031,5.96195 -2.3784,7.68011c-0.10277,-0.52402 -0.58567,-1.89303 -1.12364,-3.14282c1.79453,-1.18957 2.9191,-5.24079 3.19064,-6.25024z" data-paper-data="{&quot;noHover&quot;:false,&quot;origItem&quot;:[&quot;Path&quot;,{&quot;applyMatrix&quot;:true,&quot;segments&quot;:[[[234.44452,153.4166],[0,0],[-0.27153,1.00946]],[[231.30225,159.58146],[1.79453,-1.18957],[0.53797,1.24978]],[[232.39982,162.71264],[-0.10277,-0.52402],[2.77871,-1.71815]],[[234.74315,155.12314],[0.22143,2.86909],[-0.02753,-0.35672]],[[234.45581,152.30348],[0.22538,0.97376],[0,0]],[234.45581,153.24899],[234.39054,153.24899]],&quot;closed&quot;:true}]}" fill="#ffffff" stroke="none" stroke-width="0.5"/><path d="M228.72098,157.08097c-1.73324,0.31377 -2.06938,2.19035 -2.68917,3.42377c-0.22453,0.44684 -0.60074,0.93091 -0.82947,1.37343c-0.05775,-0.25819 -0.14603,-0.5377 -0.21997,-0.80618c0.08199,-0.24263 0.07993,-0.44759 0.07993,-0.44759c-0.06744,-3.50296 2.35034,-5.65316 5.12436,-7.23307c-0.87092,0.9187 -1.47045,2.06708 -1.46687,3.45074c0.00019,0.07499 0.00302,0.15933 0.00119,0.2389z" data-paper-data="{&quot;noHover&quot;:false,&quot;origItem&quot;:[&quot;Path&quot;,{&quot;applyMatrix&quot;:true,&quot;segments&quot;:[[[228.6788,156.87072],[0.00019,0.07499],[-0.00358,-1.38366]],[[230.16052,153.43397],[-0.87092,0.9187],[-2.77403,1.57992]],[[225.09454,160.5862],[-0.06744,-3.50296],[0,0]],[[225.01254,161.03214],[0.08199,-0.24263],[0.07394,0.26848]],[[225.22681,161.83458],[-0.05775,-0.25819],[0.22873,-0.44252]],[[226.00798,160.54871],[-0.22453,0.44684],[0.61979,-1.23342]],[[228.67602,157.10289],[-1.73324,0.31377],[0.00184,-0.07957]]],&quot;closed&quot;:true}]}" fill="#ffffff" stroke="none" stroke-width="0.5"/><path d="M227.88661,196.2188c0.14156,0.33496 0.2795,0.71011 0.39358,1.16421c0.64509,2.56779 -0.83786,6.84725 1.79905,8.76271c0.14604,0.10609 0.05308,-0.40922 0.18692,-0.53259c0.49404,-0.45539 1.04318,-0.85565 1.63463,-1.14645c0.66523,-0.32708 1.61756,0.10084 2.15674,-0.43143c0.633,-0.62489 0.01579,-1.88357 0.30012,-2.75648c0.34213,-1.05036 0.88515,-2.01168 1.32773,-3.01751c0.41289,0.0504 0.83433,0.25441 1.23869,0.1512c0.15896,-0.04057 -0.31371,-0.20685 -0.33972,-0.38065c-0.09352,-0.62512 0.00011,-1.26639 -0.00142,-1.89958c-0.00664,-2.75628 0.20637,-5.83558 -0.65587,-8.49574c-0.10462,0.01671 -0.20807,0.02964 -0.30999,0.03833c-0.18229,0.3497 -0.41302,0.99099 -0.65897,1.20287c-0.59262,0.51056 -3.53537,2.49414 -3.91889,2.55544c-0.69369,0.11086 -1.38493,-0.36336 -1.9825,-0.75892c-0.1026,-0.06792 -0.22155,-0.18943 -0.34138,-0.33729c0.15595,1.43625 -0.08564,3.58937 0.07138,4.41315c0,0 0.22616,1.21869 -0.9001,1.46873zM218.61795,153.42731c0.04617,-0.02618 0.09581,-0.05089 0.14915,-0.07388c1.07691,-0.46424 1.50767,0.69636 1.50767,0.69636l0.46952,1.26504c0.48221,1.30811 1.00588,2.60263 1.55806,3.88739c-0.02273,-0.21936 -0.03575,-0.43405 -0.03862,-0.64007l0.35721,-1.06503c0,0 0.00256,-0.00553 0.00769,-0.01561c0.65699,-4.22327 3.70036,-6.69107 7.32086,-8.64055c0.3409,-0.18356 3.14492,-1.52097 3.5674,-1.37057c2.41473,0.85963 2.4119,3.76232 2.56605,5.92851c0.21083,2.96258 0.4564,7.89011 -2.6112,9.48204c-0.83809,0.43493 -1.81792,0.42599 -2.72688,0.63898c-0.59799,-0.83835 -1.6664,-2.18174 -2.06447,-3.24199c-0.1594,-0.42457 -0.2364,-0.88775 -0.2606,-1.34502c-0.01199,-0.22654 0.21318,-0.66294 0.23137,-0.84751c-0.03251,-0.02373 -0.06309,-0.04926 -0.09182,-0.07649c-0.21015,0.08368 -1.81393,4.01626 -1.81876,4.02272c-1.03063,1.37903 -1.93692,1.55937 -2.65966,1.10457c1.68784,3.58647 3.49709,7.12649 5.13505,10.70672c0.29152,1.53612 0.80231,2.76484 1.37758,4.2144c0.66716,1.6811 2.54823,6.81572 4.48744,7.09669c0.2093,0.03032 0.4244,0.03201 0.64335,0.01022c0.16941,-0.05348 0.33263,-0.08309 0.48769,-0.0839c1.42496,-0.3408 2.9483,-1.48108 4.0654,-2.08249c4.25062,-2.2884 7.33594,-6.13218 10.96723,-9.38013c2.89627,-3.74104 6.41943,-7.1386 9.93053,-10.19019c1.07274,-0.93235 3.92519,-2.93694 5.39093,-1.11923c0.80686,1.00061 -0.35373,4.46038 -0.82607,5.48957c-1.79243,3.90563 -3.70024,7.94447 -6.13934,11.44933c-1.81531,3.25491 -4.18128,6.13347 -6.08628,9.33222c-4.97689,8.35691 -9.79761,16.46076 -15.36354,24.43928c-2.25907,2.44279 -5.58697,6.75062 -9.31874,5.64139c-1.84803,-0.54931 -2.86943,-4.92124 -3.44078,-6.52218c-2.67901,-7.50673 -4.33214,-15.78445 -5.91374,-23.64756c-2.09473,-8.6873 -4.72247,-18.38521 -4.72636,-27.39815c-0.00106,-2.46076 -0.07541,-11.32933 3.86664,-7.66491zM233.49404,151.89856c-0.25195,1.00946 -1.25056,4.97529 -2.91569,6.16487c0.49918,1.24978 0.92307,2.60716 1.01843,3.13118c2.57835,-1.71815 2.37982,-4.72041 2.17436,-7.5895c-0.02554,-0.35672 -0.05749,-1.8459 -0.26662,-2.81966v0.94551h-0.06056zM228.14406,155.35268c-0.00332,-1.38366 0.56677,-2.51806 1.37489,-3.43676c-2.574,1.57992 -4.76328,3.64928 -4.7007,7.15224c0,0 0,0.20331 -0.07608,0.44594c0.06861,0.26848 0.14523,0.54425 0.19882,0.80244c0.21224,-0.44252 0.5165,-0.83904 0.72484,-1.28588c0.5751,-1.23342 0.8674,-3.13205 2.47566,-3.44582c0.00171,-0.07957 0.00276,-0.15717 0.00257,-0.23217z" fill="#000000" stroke="none" stroke-width="0.5"/><path d="M228.74603,194.72603c-0.15703,-0.82378 0.10112,-2.99557 -0.05483,-4.43182c0.11983,0.14786 0.23955,0.26888 0.34215,0.3368c0.59756,0.39555 1.29995,0.86474 1.99365,0.75388c0.38353,-0.06129 3.35344,-2.04396 3.94606,-2.55452c0.24594,-0.21189 0.47793,-0.85269 0.66022,-1.20239c0.10192,-0.00869 0.20667,-0.02107 0.31129,-0.03778c0.86225,2.66017 0.67744,5.77734 0.68408,8.53362c0.00153,0.63319 -0.09285,1.29513 0.00067,1.92024c0.026,0.1738 0.49798,0.34273 0.33902,0.3833c-0.40435,0.10321 -0.82682,-0.09763 -1.23972,-0.14803c-0.44258,1.00584 -1.00892,1.99423 -1.35104,3.04459c-0.28433,0.87291 0.32406,2.13499 -0.30894,2.75988c-0.53918,0.53227 -1.50606,0.10566 -2.1713,0.43275c-0.59145,0.29081 -1.1491,0.68951 -1.64315,1.1449c-0.13384,0.12337 -0.04115,0.6386 -0.18719,0.53251c-2.63691,-1.91546 -1.18786,-6.23776 -1.83295,-8.80555c-0.11408,-0.4541 -0.25185,-0.84153 -0.39341,-1.17649c1.12627,-0.25004 0.90537,-1.48589 0.90537,-1.48589z" data-paper-data="{&quot;noHover&quot;:false,&quot;origItem&quot;:[&quot;Path&quot;,{&quot;applyMatrix&quot;:true,&quot;segments&quot;:[[[228.40134,197.73684],[1.21379,-0.25004],[0.15256,0.33496]],[[228.8255,198.90105],[-0.12295,-0.4541],[0.69522,2.56779]],[[230.76435,207.66376],[-2.84182,-1.91546],[0.15739,0.10609]],[[230.9658,207.13117],[-0.14424,0.12337],[0.53243,-0.45539]],[[232.72746,205.98472],[-0.63741,0.29081],[0.71692,-0.32708]],[[235.0518,205.55329],[-0.58108,0.53227],[0.68219,-0.62489]],[[235.37524,202.79681],[-0.30642,0.87291],[0.36872,-1.05036]],[[236.80615,199.7793],[-0.47697,1.00584],[0.44498,0.0504]],[[238.1411,199.9305],[-0.43577,0.10321],[0.17131,-0.04057]],[[237.77498,199.54985],[0.02802,0.1738],[-0.10079,-0.62512]],[[237.77346,197.65027],[0.00165,0.63319],[-0.00716,-2.75628]],[[237.06662,189.15453],[0.92925,2.66017],[-0.11275,0.01671]],[[236.73253,189.19285],[0.10984,-0.00869],[-0.19646,0.3497]],[[236.02236,190.39573],[0.26505,-0.21189],[-0.63867,0.51056]],[[231.79893,192.95116],[0.41333,-0.06129],[-0.7476,0.11086]],[[229.66237,192.19225],[0.644,0.39555],[-0.11057,-0.06792]],[[229.29446,191.85496],[0.12914,0.14786],[0.16807,1.43625]],[[229.37139,196.26811],[-0.16923,-0.82378],[0,0]]],&quot;closed&quot;:true}]}" fill="#ffffff" stroke="none" stroke-width="0.5"/><path d="M257.21568,150.2129c-0.00405,1.87501 0.09442,5.88379 -0.847,8.49904c0.17524,0.32223 0.35684,0.63543 0.57291,0.89267c0.73322,-0.63795 1.9878,-1.31216 2.22219,-2.38816c0.31821,-1.46078 -0.32852,-6.0095 -1.9481,-7.09626zM254.75987,160.90832c-0.72602,0.39007 -1.26347,0.53332 -1.66314,0.50193c-0.573,1.26896 -1.36497,2.90085 -2.76085,3.39158c-2.58269,0.90796 -3.69516,-1.95394 -4.37656,-4.07465c-0.83045,-0.33984 -0.67291,-1.3585 -0.67291,-1.3585c0.4107,-2.32029 1.62106,-3.85238 3.06778,-5.64897c1.83952,-2.28439 5.69845,-6.87887 8.92854,-6.23574c3.29334,0.65573 4.90525,7.50533 4.11662,10.39982c-0.67119,2.46346 -2.79116,3.49341 -4.82072,4.19003c-0.52298,-0.41645 -0.99055,-0.90654 -1.4307,-1.42707c-0.12203,0.10045 -0.25124,0.18807 -0.38805,0.26158zM247.8331,158.69873l0.16727,0.73317c0.14097,0.46367 0.23713,0.94606 0.42293,1.39101c1.00557,2.40804 1.57384,1.6225 2.60673,-0.54834c0.29441,-0.61876 0.51782,-1.33878 0.81386,-1.96704c-0.13437,-1.81394 -0.08678,-3.63097 0.39266,-5.2663c-1.68783,1.52958 -3.67266,3.57445 -4.40346,5.6575z" fill="#000000" stroke="none" stroke-width="0.5"/><path d="M257.20952,150.32364c1.61958,1.08676 2.29698,5.72749 1.97877,7.18828c-0.2344,1.076 -1.5224,1.75681 -2.25564,2.39476c-0.21607,-0.25723 -0.40605,-0.57312 -0.58128,-0.89534c0.94141,-2.61525 0.85399,-6.71996 0.85802,-8.59497z" data-paper-data="{&quot;noHover&quot;:false,&quot;origItem&quot;:[&quot;Path&quot;,{&quot;applyMatrix&quot;:true,&quot;segments&quot;:[[[260.00956,151.73094],[0,0],[-0.00436,1.87501]],[[259.09674,160.22998],[1.01457,-2.61525],[0.18886,0.32223]],[[259.71417,161.12265],[-0.23286,-0.25723],[0.7902,-0.63795]],[[262.10905,158.73449],[-0.25261,1.076],[0.34294,-1.46078]],[[260.00956,151.63823],[1.74544,1.08676],[0,0]]],&quot;closed&quot;:true}]}" fill="#ffffff" stroke="none" stroke-width="0.5"/><path d="M252.25771,153.24973c-0.47943,1.63533 -0.50408,3.51236 -0.36971,5.32631c-0.29604,0.62826 -0.54588,1.37901 -0.84029,1.99776c-1.0329,2.17084 -1.64123,2.95394 -2.6468,0.5459c-0.1858,-0.44495 -0.29574,-0.93982 -0.43672,-1.40349l-0.17366,-0.74461c0.73079,-2.08305 2.77936,-4.19229 4.46719,-5.72187z" data-paper-data="{&quot;noHover&quot;:false,&quot;origItem&quot;:[&quot;Path&quot;,{&quot;applyMatrix&quot;:true,&quot;segments&quot;:[[[249.89786,160.21677],[0.78758,-2.08305],[0,0]],[[250.07813,160.94994],[0,0],[0.15193,0.46367]],[[250.53393,162.34095],[-0.20024,-0.44495],[1.08371,2.40804]],[[253.34323,161.79261],[-1.11317,2.17084],[0.31729,-0.61876]],[[254.22034,159.82557],[-0.31905,0.62826],[-0.14481,-1.81394]],[[254.64351,154.55927],[-0.51669,1.63533],[-1.81899,1.52958]]],&quot;closed&quot;:true}]}" fill="#ffffff" stroke="none" stroke-width="0.5"/></g></g></svg>