<svg version="1.1" xmlns="http://www.w3.org/2000/svg" xmlns:xlink="http://www.w3.org/1999/xlink" width="68.05899" height="103.31622" viewBox="0,0,68.05899,103.31622"><g transform="translate(-205.97059,-127.66481)"><g data-paper-data="{&quot;isPaintingLayer&quot;:true}" fill-rule="nonzero" stroke-linecap="butt" stroke-linejoin="miter" stroke-miterlimit="10" stroke-dasharray="" stroke-dashoffset="0" style="mix-blend-mode: normal"><path d="M205.97059,230.98104v-101.96199h68.05899v101.96199z" fill="#dedede" stroke="none" stroke-width="NaN"/><path d="M211.93802,224.1498v-88.29958h56.12398v88.29958z" fill="#ffffff" stroke="#ffffff" stroke-width="1.5"/><text transform="translate(206.89312,146.16481) scale(0.5,0.5)" font-size="40" xml:space="preserve" fill="#000000" fill-rule="nonzero" stroke="#000000" stroke-width="2" stroke-linecap="butt" stroke-linejoin="miter" stroke-miterlimit="10" stroke-dasharray="" stroke-dashoffset="0" font-family="Serif" font-weight="normal" text-anchor="start" style="mix-blend-mode: normal"><tspan x="0" dy="0">K</tspan></text><text transform="translate(272.19095,212.04758) rotate(-180) scale(0.5,0.5)" font-size="40" xml:space="preserve" fill="#000000" fill-rule="nonzero" stroke="#000000" stroke-width="2" stroke-linecap="butt" stroke-linejoin="miter" stroke-miterlimit="10" stroke-dasharray="" stroke-dashoffset="0" font-family="Serif" font-weight="normal" text-anchor="start" style="mix-blend-mode: normal"><tspan x="0" dy="0">K</tspan></text><g stroke="none" stroke-width="0.5"><path d="M257.31743,169.6407c-0.97087,0 -1.07212,-0.86962 -1.08268,-1.051c-3.07892,-2.30817 -6.105,-4.69582 -9.52066,-6.53647c-1.87967,-1.01294 -3.80828,-2.91553 -6.07022,-2.94319c-2.334,-0.02854 -5.72474,1.94646 -7.90352,2.7617c-2.51329,1.25844 -4.40712,2.6733 -6.25342,4.31119c0.23314,0.06204 0.47159,0.22248 0.64675,0.5728c0.48474,0.96948 -0.48474,1.45422 -0.48474,1.45422c-2.92103,1.45847 -5.1037,3.64664 -7.39691,5.93985c-1.1231,1.1231 -2.91915,2.45475 -3.47889,3.99584c-0.97721,2.69047 0.38318,7.34304 3.13682,8.43365c2.49747,0.04741 4.2858,-2.39867 6.23141,-3.7109c0.71324,-0.48105 1.4465,-0.91894 2.19256,-1.32911c0.11611,-3.37293 0.32538,-6.72374 0.98172,-10.17025c-0.09857,-0.15148 -0.1639,-0.35225 -0.1639,-0.61834c0,-1.08391 1.08391,-1.08391 1.08391,-1.08391h0.65816c5.31877,0 10.6296,0.37422 15.94033,0.76193c2.84231,0.20755 7.14614,0.07363 9.25352,2.49109c0.96533,1.10737 1.33743,4.12221 1.54721,5.57253c0.12044,0.83264 0.20799,1.67427 0.2694,2.52252c0.12784,0.08511 0.25488,0.17147 0.38101,0.25922c1.09103,0.75906 2.24539,0.97584 3.37764,1.67488c0.19633,0.12122 0.18106,0.5528 0.41177,0.55642c0.18681,0.00294 0.06592,-0.36845 0.11715,-0.54811c0.31356,-1.09954 0.4011,-1.24175 0.8233,-2.29784c0.61632,-1.54167 1.39634,-3.02165 1.96311,-4.57743c0.21002,-0.57649 0.8541,-1.15192 0.63854,-1.72636c-0.22651,-0.60366 -1.03819,-0.76547 -1.54098,-1.1691c-1.91305,-1.06108 -3.70794,-2.29097 -5.46486,-3.57612c-0.08775,0.01948 -0.18523,0.03031 -0.29354,0.03031zM256.01414,165.70474c0,0 0,-0.08124 0.02224,-0.19923c-0.03909,-0.04634 -0.05959,-0.07708 -0.05959,-0.07708l-0.59977,-1.04684c-1.1635,-5.81751 -3.32207,-11.50772 -7.45333,-15.97255c-1.15517,-1.24845 -3.8317,-4.18918 -5.68872,-4.21887c-0.6393,-0.01022 -2.33633,1.52095 -2.72017,1.77685c-5.75249,4.21218 -9.26937,10.39723 -12.23969,16.74658c1.36998,-1.02667 2.85582,-1.95864 4.59874,-2.82896c2.53743,-0.95347 6.03251,-2.92156 8.77003,-2.94241c2.71647,-0.02069 4.84305,1.98912 7.09312,3.1997c2.95387,1.58924 5.62035,3.57922 8.27719,5.57896c-0.00002,-0.00538 -0.00004,-0.01076 -0.00005,-0.01614zM258.18195,165.70474c-0.00172,0.57118 0.03151,1.14385 0.09816,1.71204c1.93027,1.42495 3.89659,2.79716 6.00347,3.96952c0.57721,0.46046 2.17484,1.61505 2.40803,2.34112c0.21249,0.66162 -0.45187,2.47792 -0.67779,3.10019c-0.74364,2.04825 -1.69303,5.38936 -2.9177,7.16561c-0.43934,0.63721 -0.8887,1.4517 -1.63796,1.64578c-0.00421,0.00109 -3.03918,-1.29808 -3.23918,-1.38175c-0.40077,-0.16766 -0.80075,-0.3456 -1.19958,-0.53255c0.0702,4.40935 -0.35955,8.92805 -0.37844,13.24006c-0.46373,2.31863 0.28268,5.10393 -1.31526,7.13419c-1.33147,1.6917 -4.47769,1.933 -6.59153,1.95785c0.02206,2.05265 0.01597,4.10526 0.01406,6.15838c-0.00082,0.8816 0.07838,2.72564 -0.3863,3.42996c-0.95003,1.44001 -2.74194,1.50674 -4.21464,1.80128c-1.63039,0.32608 -3.71019,0.93972 -5.31571,0.1203c-0.96893,-0.49452 -1.69146,-1.33169 -2.22623,-2.33744c-0.14105,-0.03605 -0.26963,-0.09799 -0.37826,-0.20138c-0.71532,-0.68076 -0.80536,-1.56261 -0.5645,-2.40376c-0.37322,-1.57686 -0.48626,-3.21156 -0.48511,-4.47056c-0.31218,-1.51967 -0.36045,-3.01225 -0.36877,-4.51025c-1.58508,-0.55567 -3.17413,-1.1933 -4.79922,-1.89802c-4.13783,-3.07874 -3.20494,-7.48134 -2.9528,-12.07573c0.10374,-1.89027 0.15218,-3.74647 0.20192,-5.58744c-2.77773,2.0283 -5.17076,4.59088 -8.75857,4.62583c-4.01547,-1.61368 -6.27128,-7.16166 -4.76118,-11.31135c0.52776,-1.45025 1.82345,-2.62201 2.88338,-3.68277c1.49347,-1.49464 2.94282,-2.9946 4.51228,-4.34206c0.01765,-0.19831 0.07433,-0.34 0.07433,-0.34l0.54027,-1.29107c0.54532,-0.56021 1.07639,-1.09646 1.60304,-1.61104c3.6585,-8.19057 7.5824,-16.34192 14.91059,-21.93233c1.00553,-0.67036 2.55652,-2.16289 3.8615,-2.17215c2.13892,-0.01519 4.27073,2.00542 5.76841,3.30262c5.43203,4.70493 8.24899,11.82311 9.61009,18.62862l0.27778,0.26949c0,0 0.24978,0.37467 0.18586,0.80202c0.21557,0.30748 0.21557,0.67678 0.21557,0.67678zM236.87804,189.96634c-0.06134,0.00968 -0.12014,0.02951 -0.17603,0.05785c-0.15118,0.19617 -0.30212,0.40897 -0.45381,0.63937c0.00648,0.38909 0.01889,0.77771 0.03602,1.16598c0.04701,0.03735 0.1026,0.06415 0.16729,0.07801c2.03643,0.43621 3.90378,-0.52622 5.84068,-0.7354c0.82047,-0.08861 1.34758,0.13508 2.14558,-0.15791c0.84431,-0.31 1.41571,-0.59032 1.2651,-1.39613v-0.65816c0,0 0,-0.1008 0.03074,-0.24093c-0.60765,-0.60027 -1.79075,-0.29229 -2.65247,-0.44803c-2.51131,-0.45388 -4.09775,-0.42671 -5.50656,0.8073c-0.04406,0.62705 -0.69654,0.88804 -0.69654,0.88804zM245.70286,214.40907l0.07753,0.18316c-1.21509,-3.03772 -2.21876,-2.80109 -5.3559,-2.82887c-0.76679,-0.00679 -1.17455,-0.16774 -1.81659,0.25976c-0.09789,0.06518 -0.46259,0.4408 -0.71863,0.76052c0.03207,0.11277 0.06595,0.22427 0.10176,0.33415c0.00663,-0.00392 0.01336,-0.00793 0.0202,-0.01202c0,0 1.08391,0 1.08391,1.08391c0,0.30659 -0.08673,0.52647 -0.21111,0.68414c0.26559,0.32811 0.57624,0.59153 0.93951,0.76536c1.08346,0.51846 2.82783,-0.10432 3.89862,-0.31847c0.41505,-0.08301 1.41026,-0.13645 2.1133,-0.37555c-0.13258,-0.26901 -0.13258,-0.53609 -0.13258,-0.53609zM235.15916,188.09545c0.12636,0 0.23799,0.01473 0.3366,0.04076c2.0556,-2.23736 4.44043,-2.64433 7.97619,-1.9975c2.15064,0.39344 3.25842,-0.26169 4.52465,2.16156c0.78364,1.4997 0.5316,4.2974 0.53224,5.92503c0.00128,3.24272 -0.09252,6.48822 0.15646,9.72143c1.76222,0.01075 4.2539,-0.17941 4.91977,-1.16642c1.15895,-1.71791 0.4945,-4.10852 0.87863,-6.02915c-0.02504,-4.70068 0.40942,-9.4639 0.30372,-14.16647c-0.93207,-0.51279 -1.85387,-1.0629 -2.7606,-1.63354l0.01225,0.33021c0,0 0,1.08391 -1.08391,1.08391c-1.08391,0 -1.08391,-1.08391 -1.08391,-1.08391l0.01475,-0.0412c-0.1041,-0.62461 -0.17521,-1.25581 -0.28478,-1.87928c-0.27068,-0.18367 -0.53951,-0.36786 -0.80633,-0.55205c-0.60623,1.18878 -1.59185,2.57404 -1.84748,3.44214c0,0 -0.31146,1.03819 -1.34965,0.72674c-1.03819,-0.31146 -0.72673,-1.34965 -0.72673,-1.34965c0.28277,-0.92761 0.925,-2.90677 1.88387,-4.43374c-1.04211,-0.95952 -1.94184,-1.9569 -2.93845,-2.95292c-0.10867,-0.10861 -0.00667,0.3332 -0.10894,0.44786c-0.24338,0.27288 -0.5849,0.43897 -0.87756,0.65817c-0.82626,0.61887 -1.69704,1.18036 -2.56809,1.73903c0.87054,0.86117 1.30672,2.16672 1.64355,3.23873c0.33132,1.05446 0.25649,1.42531 0.26116,2.4919v1.09695c0,0 0,1.08391 -1.08391,1.08391c-1.08391,0 -1.08391,-1.08391 -1.08391,-1.08391v-1.09695c0.00608,-1.14202 -0.17698,-3.89167 -1.45092,-4.40765c-0.22207,-0.08994 -0.27899,0.39312 -0.45199,0.55887c-0.47672,0.45676 -1.02964,0.83147 -1.49151,1.30325c-2.19343,2.24048 -4.10788,5.10036 -5.26535,7.99403c0,0 -0.40255,1.00638 -1.40893,0.60383c-0.38241,-0.15297 -0.56139,-0.39312 -0.63632,-0.63211c-0.02082,0.51747 -0.04473,1.03717 -0.07299,1.55953c-0.19194,3.54876 -1.30108,7.66282 1.87376,10.07178c1.2706,0.53704 2.49568,1.01571 3.7023,1.44004c-0.00905,-0.50751 -0.02666,-1.01752 -0.0613,-1.53126c-0.16742,-2.48368 -0.46476,-4.94805 -0.59551,-7.4259c-0.14372,-0.36505 -0.20346,-0.75176 -0.19112,-1.14062c-0.26672,-0.50649 0.06144,-1.05343 0.06144,-1.05343c0.02163,-0.03558 0.04327,-0.07091 0.06493,-0.10598v-0.87208c0,0 0,-1.08391 1.08391,-1.08391zM249.55593,175.16013c1.12196,0.07325 1.68853,1.38788 2.00848,2.78069c1.01978,0.58601 2.05653,1.13344 3.07406,1.70497c-0.14373,-1.68071 -0.49925,-4.56525 -1.23419,-5.36011c-1.65965,-1.79495 -5.60492,-1.53991 -7.72801,-1.69492c-0.29742,-0.02172 -0.59485,-0.0434 -0.89228,-0.06498c0.43311,0.41323 0.76945,1.0001 1.22037,1.39459c0.19591,0.17139 1.26181,1.00975 2.13395,1.6928c0.43515,-0.31248 0.90833,-0.48629 1.41761,-0.45304zM229.32622,187.46047c0.90373,-2.25931 2.2285,-4.51325 3.79123,-6.5022c-1.22958,0.54843 -2.46053,1.09869 -3.66062,1.73758c-0.0458,1.57994 -0.07799,3.16726 -0.1343,4.77442c0.00235,-0.00643 0.00369,-0.0098 0.00369,-0.0098zM237.61689,176.21954c1.58998,-1.06289 3.15677,-2.27662 4.78992,-3.26453c0.23655,-0.14309 0.47018,-0.36304 0.70954,-0.5487c-4.22545,-0.29785 -8.45183,-0.55032 -12.68287,-0.57042c-0.54902,2.90171 -0.77438,5.73504 -0.89644,8.57276c2.7303,-1.32513 5.5339,-2.48715 8.07985,-4.18911z" fill="#000000"/><path d="M245.87704,214.95732c-0.70304,0.23911 -1.70644,0.308 -2.12149,0.39101c-1.07079,0.21416 -2.88065,0.83849 -3.96411,0.32004c-0.36327,-0.17383 -0.68257,-0.45154 -0.94816,-0.77964c0.12438,-0.15768 0.20893,-0.38616 0.20893,-0.69275c0,-1.08391 -1.08371,-1.09771 -1.08371,-1.09771c-0.00684,0.0041 -0.0136,0.00827 -0.02022,0.01219c-0.03581,-0.10988 -0.06901,-0.22461 -0.10107,-0.33739c0.25604,-0.31971 0.62465,-0.70538 0.72255,-0.77056c0.64205,-0.4275 1.0628,-0.28125 1.82959,-0.27446c3.13714,0.02778 4.20841,-0.16476 5.42349,2.87296l-0.07719,-0.18496c0,0 -0.00118,0.27228 0.1314,0.54129z" data-paper-data="{&quot;noHover&quot;:false,&quot;origItem&quot;:[&quot;Path&quot;,{&quot;applyMatrix&quot;:true,&quot;segments&quot;:[[245.70285,214.40906],[[245.78037,214.59222],[0,0],[-1.21509,-3.03772]],[[240.42448,211.76335],[3.13714,0.02778],[-0.76679,-0.00679]],[[238.60788,212.02312],[0.64205,-0.4275],[-0.09789,0.06518]],[[237.88925,212.78363],[0.25604,-0.31971],[0.03207,0.11277]],[[237.99101,213.11779],[-0.03581,-0.10988],[0.00663,-0.00392]],[[238.0112,213.10576],[-0.00684,0.0041],[0,0]],[[239.09511,214.18967],[0,-1.08391],[0,0.30659]],[[238.884,214.87381],[0.12438,-0.15768],[0.26559,0.32811]],[[239.82351,215.63918],[-0.36327,-0.17383],[1.08346,0.51846]],[[243.72213,215.3207],[-1.07079,0.21416],[0.41505,-0.08301]],[[245.83543,214.94515],[-0.70304,0.23911],[-0.13258,-0.26901]]],&quot;closed&quot;:true}]}" fill="#ffffff"/><path d="M229.3007,187.50773c0.05631,-1.60716 0.07748,-3.26023 0.12328,-4.84017c1.20009,-0.63888 2.48572,-1.19832 3.7153,-1.74675c-1.56273,1.98895 -2.88748,4.2429 -3.79121,6.50221c0,0 -0.04503,0.07828 -0.04737,0.08471z" data-paper-data="{&quot;noHover&quot;:false,&quot;origItem&quot;:[&quot;Path&quot;,{&quot;applyMatrix&quot;:true,&quot;segments&quot;:[[[229.32621,187.46046],[0,0],[0.90373,-2.25931]],[[233.11744,180.95826],[-1.56273,1.98895],[-1.22958,0.54843]],[[229.45682,182.69584],[1.20009,-0.63888],[-0.0458,1.57994]],[[229.32252,187.47026],[0.05631,-1.60716],[0.00235,-0.00643]]],&quot;closed&quot;:true}]}" fill="#ffceaf"/><path d="M234.1186,189.17883l-0.00033,0.86725c-0.02166,0.03508 -0.04337,0.06988 -0.06499,0.10546c0,0 -0.32925,0.54155 -0.06254,1.04804c-0.01234,0.38886 0.04545,0.76992 0.18917,1.13497c0.13075,2.47786 0.41217,4.92304 0.57959,7.40672c0.03463,0.51375 0.0066,1.09743 0.01565,1.60494c-1.20662,-0.42433 -2.44066,-0.90985 -3.71126,-1.44689c-3.17484,-2.40896 -2.07838,-6.55129 -1.88644,-10.10005c0.02825,-0.52236 0.0522,-1.04743 0.07302,-1.56489c0.07493,0.23899 0.34051,0.48286 0.72292,0.63582c1.00638,0.40255 1.32236,-0.60799 1.32236,-0.60799c1.15747,-2.89367 3.093,-5.78745 5.28643,-8.02793c0.46187,-0.47178 1.02189,-0.84987 1.49861,-1.30663c0.173,-0.16576 0.23219,-0.64958 0.45426,-0.55964c1.27394,0.51598 1.482,3.34866 1.47592,4.49068l0.00232,1.09619c0,0 -0.02245,1.00043 1.06145,1.00043c1.08391,0 1.09454,-1.08455 1.09454,-1.08455l-0.00497,-1.01038c-0.00467,-1.06659 0.07208,-1.43738 -0.25923,-2.49184c-0.33683,-1.072 -0.77835,-2.4639 -1.64889,-3.32507c0.87105,-0.55867 1.7506,-1.12041 2.57686,-1.73928c0.29266,-0.2192 0.63663,-0.38505 0.88002,-0.65792c0.10227,-0.11466 0.00041,-0.55644 0.10909,-0.44784c0.9966,0.99602 1.90717,1.9963 2.94928,2.95583c-0.95886,1.52697 -1.60134,3.50604 -1.8841,4.43365c0,0 -0.30507,1.04143 0.73313,1.35289c1.03819,0.31146 1.30099,-0.65507 1.30099,-0.65507c0.25563,-0.8681 1.2915,-2.324 1.89773,-3.51279c0.26682,0.18419 0.53839,0.37039 0.80908,0.55407c0.10957,0.62347 0.18468,1.25829 0.28878,1.8829l-0.01469,0.04125c0,0 0.0038,1.08839 1.08771,1.08839c1.08391,0 1.01458,-1.03183 1.01458,-1.03183l0.05606,-0.38361c0.90673,0.57064 1.8334,1.12836 2.76547,1.64114c0.10569,4.70257 -0.33044,9.50772 -0.30539,14.2084c-0.38412,1.92062 0.27151,4.32165 -0.88745,6.03955c-0.66587,0.98701 -3.16767,1.18366 -4.92988,1.17291c-0.24898,-3.23321 -0.20769,-6.5445 -0.20897,-9.78723c-0.00064,-1.62763 0.24277,-4.39342 -0.54087,-5.89312c-1.26622,-2.42324 -2.352,-1.73568 -4.50263,-2.12911c-3.53576,-0.64683 -5.85671,-0.27138 -7.91232,1.96598c-0.09862,-0.02603 -0.21023,-0.04082 -0.3366,-0.04082c-1.08391,0 -1.08344,1.07703 -1.08344,1.07703z" data-paper-data="{&quot;noHover&quot;:false,&quot;origItem&quot;:[&quot;Path&quot;,{&quot;applyMatrix&quot;:true,&quot;segments&quot;:[[[235.15915,188.09544],[-1.08391,0],[0.12636,0]],[[235.49575,188.13619],[-0.09862,-0.02603],[2.0556,-2.23736]],[[243.47194,186.1387],[-3.53576,-0.64683],[2.15064,0.39344]],[[247.99659,188.30025],[-1.26622,-2.42324],[0.78364,1.4997]],[[248.52883,194.22528],[-0.00064,-1.62763],[0.00128,3.24272]],[[248.68528,203.94671],[-0.24898,-3.23321],[1.76222,0.01075]],[[253.60505,202.78029],[-0.66587,0.98701],[1.15895,-1.71791]],[[254.48368,196.75115],[-0.38412,1.92062],[-0.02504,-4.70068]],[[254.7874,182.58468],[0.10569,4.70257],[-0.93207,-0.51279]],[[252.0268,180.95113],[0.90673,0.57064],[0,0]],[252.03905,181.28134],[[250.95515,182.36525],[1.08391,0],[-1.08391,0]],[249.87124,181.28134],[[249.88599,181.24015],[0,0],[-0.1041,-0.62461]],[[249.6012,179.36087],[0.10957,0.62347],[-0.27068,-0.18367]],[[248.79487,178.80882],[0.26682,0.18419],[-0.60623,1.18878]],[[246.94739,182.25097],[0.25563,-0.8681],[0,0]],[[245.59774,182.9777],[1.03819,0.31146],[-1.03819,-0.31146]],[[244.87101,181.62805],[0,0],[0.28277,-0.92761]],[[246.75487,177.1943],[-0.95886,1.52697],[-1.04211,-0.95952]],[[243.81643,174.24139],[0.9966,0.99602],[-0.10867,-0.10861]],[[243.70749,174.68924],[0.10227,-0.11466],[-0.24338,0.27288]],[[242.82993,175.34741],[0.29266,-0.2192],[-0.82626,0.61887]],[[240.26184,177.08644],[0.87105,-0.55867],[0.87054,0.86117]],[[241.90539,180.32517],[-0.33683,-1.072],[0.33132,1.05446]],[[242.16655,182.81706],[-0.00467,-1.06659],[0,0]],[242.16655,183.91401],[[241.08265,184.99792],[1.08391,0],[-1.08391,0]],[239.99874,183.91401],[[239.99874,182.81706],[0,0],[0.00608,-1.14202]],[[238.54782,178.40941],[1.27394,0.51598],[-0.22207,-0.08994]],[[238.09584,178.96828],[0.173,-0.16576],[-0.47672,0.45676]],[[236.60432,180.27153],[0.46187,-0.47178],[-2.19343,2.24048]],[[231.33897,188.26556],[1.15747,-2.89367],[0,0]],[[229.93004,188.86939],[1.00638,0.40255],[-0.38241,-0.15297]],[[229.29372,188.23728],[0.07493,0.23899],[-0.02082,0.51747]],[[229.22074,189.79681],[0.02825,-0.52236],[-0.19194,3.54876]],[[231.09449,199.86858],[-3.17484,-2.40896],[1.2706,0.53704]],[[234.7968,201.30862],[-1.20662,-0.42433],[-0.00905,-0.50751]],[[234.7355,199.77736],[0.03463,0.51375],[-0.16742,-2.48368]],[[234.13999,192.35145],[0.13075,2.47786],[-0.14372,-0.36505]],[[233.94887,191.21083],[-0.01234,0.38886],[-0.26672,-0.50649]],[[234.01032,190.1574],[0,0],[0.02163,-0.03558]],[[234.07524,190.05142],[-0.02166,0.03508],[0,0]],[234.07524,189.17934]],&quot;closed&quot;:true}]}" fill="#ffceaf"/><path d="M248.09681,175.60069c-0.87214,-0.68305 -1.93395,-1.5308 -2.12987,-1.70219c-0.45093,-0.39449 -0.78497,-0.98488 -1.21808,-1.39811c0.29743,0.02158 0.59723,0.04027 0.89465,0.06199c2.12308,0.155 6.1401,-0.09064 7.79975,1.70431c0.73494,0.79486 1.08663,3.72378 1.23036,5.40449c-1.01753,-0.57153 -2.12007,-1.17502 -3.13985,-1.76103c-0.31995,-1.39281 -0.84871,-2.634 -1.97066,-2.70726c-0.50927,-0.03325 -1.03115,0.08533 -1.4663,0.3978z" data-paper-data="{&quot;noHover&quot;:false,&quot;origItem&quot;:[&quot;Path&quot;,{&quot;applyMatrix&quot;:true,&quot;segments&quot;:[[[249.55593,175.16012],[-0.50927,-0.03325],[1.12196,0.07325]],[[251.56441,177.94081],[-0.31995,-1.39281],[1.01978,0.58601]],[[254.63848,179.64578],[-1.01753,-0.57153],[-0.14373,-1.68071]],[[253.40429,174.28568],[0.73494,0.79486],[-1.65965,-1.79495]],[[245.67628,172.59076],[2.12308,0.155],[-0.29742,-0.02172]],[[244.784,172.52578],[0.29743,0.02158],[0.43311,0.41323]],[[246.00437,173.92036],[-0.45093,-0.39449],[0.19591,0.17139]],[[248.13833,175.61316],[-0.87214,-0.68305],[0.43515,-0.31248]]],&quot;closed&quot;:true}]}" fill="#ffffff"/><path d="M229.50038,180.43179c0.12206,-2.83772 0.34901,-5.7197 0.89804,-8.62141c4.23104,0.0201 8.53051,0.27725 12.75596,0.57511c-0.23936,0.18566 -0.47257,0.4064 -0.70912,0.54949c-1.63315,0.98791 -3.19516,2.22493 -4.78514,3.28782c-2.54595,1.70196 -5.42944,2.88386 -8.15974,4.20899z" data-paper-data="{&quot;noHover&quot;:false,&quot;origItem&quot;:[&quot;Path&quot;,{&quot;applyMatrix&quot;:true,&quot;segments&quot;:[[[237.61688,176.21953],[-2.54595,1.70196],[1.58998,-1.06289]],[[242.4068,172.955],[-1.63315,0.98791],[0.23655,-0.14309]],[[243.11634,172.40629],[-0.23936,0.18566],[-4.22545,-0.29785]],[[230.43347,171.83587],[4.23104,0.0201],[-0.54902,2.90171]],[[229.53703,180.40863],[0.12206,-2.83772],[2.7303,-1.32513]]],&quot;closed&quot;:true}]}" fill="#ffffff"/><path d="M257.6536,169.60254c1.75692,1.28514 3.55252,2.52354 5.46558,3.58462c0.50278,0.40364 1.31438,0.56747 1.5409,1.17112c0.21555,0.57444 -0.42883,1.15302 -0.63885,1.72951c-0.56677,1.55578 -1.34891,3.04448 -1.96523,4.58615c-0.4222,1.05609 -0.51148,1.20248 -0.82504,2.30202c-0.05123,0.17967 0.06921,0.55195 -0.1176,0.54901c-0.23071,-0.00362 -0.29303,-0.47391 -0.48936,-0.59512c-1.13225,-0.69904 -2.28663,-0.91578 -3.37766,-1.67484c-0.12613,-0.08775 -0.25323,-0.17398 -0.38108,-0.25909c-0.06141,-0.84825 -0.15099,-1.68494 -0.27143,-2.51758c-0.20978,-1.45033 -0.5842,-4.4514 -1.54953,-5.55877c-2.10739,-2.41746 -6.40785,-2.26659 -9.25016,-2.47414c-5.31073,-0.38771 -10.54019,-0.76572 -15.85895,-0.76572l-0.65795,-0.00072c0,0 -1.0828,-0.00471 -1.0828,1.0792c0,0.26609 0.06564,0.46475 0.16421,0.61623c-0.65634,3.44651 -0.87283,6.76745 -0.98894,10.14038c-0.74606,0.41017 -1.47913,0.84834 -2.19237,1.32939c-1.94561,1.31223 -3.80628,3.80611 -6.30375,3.75869c-2.75364,-1.09061 -4.12002,-5.75755 -3.14282,-8.44802c0.55974,-1.54109 2.35488,-2.87927 3.47798,-4.00237c2.29321,-2.29321 4.47818,-4.49825 7.3992,-5.95673c0,0 0.97123,-0.48905 0.4865,-1.45853c-0.17516,-0.35032 -0.41331,-0.51138 -0.64645,-0.57342c1.8463,-1.63789 3.75499,-3.06972 6.26828,-4.32816c2.17878,-0.81524 5.59542,-2.79748 7.92942,-2.76894c2.26194,0.02766 4.21146,1.93667 6.09113,2.9496c3.41566,1.84066 6.46091,4.25418 9.53983,6.56235c0.01056,0.18138 0.1125,1.05412 1.08337,1.05412c0.10831,0 0.20581,-0.01077 0.29355,-0.03025z" data-paper-data="{&quot;noHover&quot;:false,&quot;origItem&quot;:[&quot;Path&quot;,{&quot;applyMatrix&quot;:true,&quot;segments&quot;:[[[257.31742,169.64069],[0.10831,0],[-0.97087,0]],[[256.23474,168.58969],[0.01056,0.18138],[-3.07892,-2.30817]],[[246.71408,162.05322],[3.41566,1.84066],[-1.87967,-1.01294]],[[240.64387,159.11003],[2.26194,0.02766],[-2.334,-0.02854]],[[232.74035,161.87173],[2.17878,-0.81524],[-2.51329,1.25844]],[[226.48693,166.18292],[1.8463,-1.63789],[0.23314,0.06204]],[[227.13368,166.75572],[-0.17516,-0.35032],[0.48474,0.96948]],[[226.64894,168.20993],[0,0],[-2.92103,1.45847]],[[219.25203,174.14978],[2.29321,-2.29321],[-1.1231,1.1231]],[[215.77314,178.14562],[0.55974,-1.54109],[-0.97721,2.69047]],[[218.90995,186.57927],[-2.75364,-1.09061],[2.49747,0.04741]],[[225.14136,182.86838],[-1.94561,1.31223],[0.71324,-0.48105]],[[227.33392,181.53926],[-0.74606,0.41017],[0.11611,-3.37293]],[[228.31564,171.36902],[-0.65634,3.44651],[-0.09857,-0.15148]],[[228.15174,170.75068],[0,0.26609],[0,-1.08391]],[229.23565,169.66677],[[229.89381,169.66677],[0,0],[5.31877,0]],[[245.83414,170.4287],[-5.31073,-0.38771],[2.84231,0.20755]],[[255.08766,172.91979],[-2.10739,-2.41746],[0.96533,1.10737]],[[256.63488,178.49232],[-0.20978,-1.45033],[0.12044,0.83264]],[[256.90428,181.01484],[-0.06141,-0.84825],[0.12784,0.08511]],[[257.28529,181.27406],[-0.12613,-0.08775],[1.09103,0.75906]],[[260.66293,182.94894],[-1.13225,-0.69904],[0.19633,0.12122]],[[261.0747,183.50536],[-0.23071,-0.00362],[0.18681,0.00294]],[[261.19185,182.95725],[-0.05123,0.17967],[0.31356,-1.09954]],[[262.01515,180.6594],[-0.4222,1.05609],[0.61632,-1.54167]],[[263.97826,176.08197],[-0.56677,1.55578],[0.21002,-0.57649]],[[264.6168,174.35561],[0.21555,0.57444],[-0.22651,-0.60366]],[[263.07582,173.1865],[0.50278,0.40364],[-1.91305,-1.06108]],[[257.61096,169.61039],[1.75692,1.28514],[-0.08775,0.01948]]],&quot;closed&quot;:true}]}" fill="#ffffff"/><path d="M256.04888,165.74689c-2.65684,-1.99974 -5.32503,-3.98759 -8.27889,-5.57683c-2.25006,-1.21058 -4.42931,-3.20988 -7.14578,-3.1892c-2.73752,0.02085 -6.25165,1.96981 -8.78908,2.92328c-1.74292,0.87032 -3.2282,1.80337 -4.59818,2.83004c2.97033,-6.34934 6.51531,-12.59716 12.2678,-16.80934c0.38384,-0.25589 2.09324,-1.78818 2.73254,-1.77796c1.85702,0.02969 4.5612,2.9824 5.71637,4.23084c4.13126,4.46483 6.29558,10.2109 7.45908,16.02841l0.59903,1.04788c0,0 0.02045,0.03079 0.05955,0.07714c-0.02224,0.11799 -0.02249,0.19956 -0.02249,0.19956c0.00001,0.00538 0.00001,0.01079 0.00003,0.01617z" data-paper-data="{&quot;noHover&quot;:false,&quot;origItem&quot;:[&quot;Path&quot;,{&quot;applyMatrix&quot;:true,&quot;segments&quot;:[[[256.01413,165.70473],[0.00001,0.00538],[0,0]],[[256.03637,165.50551],[-0.02224,0.11799],[-0.03909,-0.04634]],[255.97678,165.42842],[[255.37701,164.38158],[0,0],[-1.1635,-5.81751]],[[247.92367,148.40904],[4.13126,4.46483],[-1.15517,-1.24845]],[[242.23496,144.19017],[1.85702,0.02969],[-0.6393,-0.01022]],[[239.51479,145.96702],[0.38384,-0.25589],[-5.75249,4.21218]],[[227.2751,162.71359],[2.97033,-6.34934],[1.36998,-1.02667]],[[231.87383,159.88463],[-1.74292,0.87032],[2.53743,-0.95347]],[[240.64387,156.94222],[-2.73752,0.02085],[2.71647,-0.02069]],[[247.73698,160.14192],[-2.25006,-1.21058],[2.95387,1.58924]],[[256.01418,165.72088],[-2.65684,-1.99974],[-0.00002,-0.00538]]],&quot;closed&quot;:true}]}" fill="#ffffff"/><path d="M243.94775,199.05185c0,-0.59862 0.48528,-1.08391 1.08391,-1.08391c0.59862,0 1.08391,0.48528 1.08391,1.08391c0,0.59862 -0.48528,1.08391 -1.08391,1.08391c-0.59862,0 -1.08391,-0.48528 -1.08391,-1.08391z" fill="#000000"/></g></g></g></svg>