<svg version="1.1" xmlns="http://www.w3.org/2000/svg" xmlns:xlink="http://www.w3.org/1999/xlink" width="68.05899" height="103.31622" viewBox="0,0,68.05899,103.31622"><g transform="translate(-205.97058,-127.6648)"><g data-paper-data="{&quot;isPaintingLayer&quot;:true}" fill-rule="nonzero" stroke-linecap="butt" stroke-linejoin="miter" stroke-miterlimit="10" stroke-dasharray="" stroke-dashoffset="0" style="mix-blend-mode: normal"><path d="M205.97059,230.98103v-101.96199h68.05899v101.96199z" fill="#dedede" stroke="none" stroke-width="NaN"/><path d="M211.93802,224.1498v-88.29958h56.12398v88.29958z" fill="#ffffff" stroke="#ffffff" stroke-width="1.5"/><text transform="translate(206.89311,146.16481) scale(0.5,0.5)" font-size="40" xml:space="preserve" fill="#000000" fill-rule="nonzero" stroke="#000000" stroke-width="2" stroke-linecap="butt" stroke-linejoin="miter" stroke-miterlimit="10" stroke-dasharray="" stroke-dashoffset="0" font-family="Serif" font-weight="normal" text-anchor="start" style="mix-blend-mode: normal"><tspan x="0" dy="0">Q</tspan></text><text transform="translate(272.19095,212.04757) rotate(-180) scale(0.5,0.5)" font-size="40" xml:space="preserve" fill="#000000" fill-rule="nonzero" stroke="#000000" stroke-width="2" stroke-linecap="butt" stroke-linejoin="miter" stroke-miterlimit="10" stroke-dasharray="" stroke-dashoffset="0" font-family="Serif" font-weight="normal" text-anchor="start" style="mix-blend-mode: normal"><tspan x="0" dy="0">Q</tspan></text><path d="M249.20094,193.6826c0.08666,-0.36986 0.35825,-0.94941 1.20939,-0.94941c1.25,0 1.25,1.25 1.25,1.25l-0.63868,1.26149c0.92503,-0.06522 1.84224,-0.14921 2.74738,-0.24985c2.03476,-0.22624 4.45809,-0.32834 6.21252,-1.54604c2.02054,-1.4024 2.05994,-3.55022 2.22785,-5.74835c0.37845,-4.95448 -0.38926,-9.65741 -2.23142,-14.25322c-3.51935,-7.23661 -11.56834,-8.57494 -18.92892,-8.57493h-0.25301c0,0 -1.25,0 -1.25,-1.25c0,-1.02636 0.84273,-1.20999 1.14428,-1.24284c-4.91048,-2.05388 -9.87469,-3.83784 -15.29766,-3.83234c-1.17382,0.00119 -8.11527,0.45568 -5.78014,3.68875c0.82749,1.14568 3.03318,1.97432 4.10387,3.03262c0.49973,0.52997 1.17817,0.93604 1.49919,1.5899c2.42335,4.93601 -3.59796,8.61498 -4.18124,13.12976c-1.11838,8.65663 9.0579,13.16497 15.8801,14.52464c1.47978,0.29713 2.99685,0.51345 4.53207,0.65858c-1.43658,-0.73393 -2.62347,-1.86134 -3.32911,-3.50702c0,0 -0.46424,-1.1606 0.69636,-1.62483c1.1606,-0.46424 1.62483,0.69636 1.62483,0.69636c1.12044,3.15777 5.67551,3.38311 8.76234,2.94673zM245.08096,162.53168c7.08045,0.59424 13.77642,3.01205 17.18144,9.89998c1.98794,4.97922 2.8771,10.0942 2.43921,15.4659c-0.24643,3.02304 -0.58909,5.65243 -3.27231,7.58937c-2.0957,1.51283 -4.91964,1.71895 -7.3842,1.99261c-5.74957,0.63843 -11.93361,0.61798 -17.62095,-0.5153c-8.27348,-1.6602 -19.10014,-7.18233 -17.86565,-17.32284c0.47251,-3.88133 7.10452,-9.21761 3.39012,-12.60514c-1.20233,-1.21976 -3.66421,-2.14936 -4.49838,-3.54557c-2.34589,-3.92647 2.26777,-7.40735 5.63527,-7.44357c7.74447,-0.0833 14.20316,2.14585 21.23901,5.16122c0,0 0.93548,0.40092 0.75643,1.32335z" fill="#000000" stroke="none" stroke-width="0.5"/><path d="M240.43757,190.78586c0,0 -0.4704,-1.1611 -1.63099,-0.69686c-1.1606,0.46424 -0.68051,1.52611 -0.68051,1.52611c0.70563,1.64568 1.88584,2.8723 3.32242,3.60623c-1.53522,-0.14513 -3.06483,-0.36254 -4.54461,-0.65967c-6.82221,-1.35967 -17.03732,-5.90912 -15.91894,-14.56575c0.58328,-4.51478 6.61201,-8.22868 4.18866,-13.16469c-0.32102,-0.65387 -0.99876,-1.06099 -1.49849,-1.59095c-1.07069,-1.0583 -3.27618,-1.88724 -4.10367,-3.03292c-2.33513,-3.23308 4.61532,-3.69742 5.78915,-3.69861c5.42297,-0.0055 10.41913,1.76683 15.32961,3.82072c-0.30155,0.03285 -1.13978,0.31629 -1.13978,1.34265c0,1.25 1.24591,1.1502 1.24591,1.1502l0.25406,0.00002c7.36058,0 15.45742,1.37949 18.97677,8.6161c1.84216,4.59581 2.60533,9.33001 2.22688,14.28449c-0.16791,2.19813 -0.21406,4.35607 -2.2346,5.75847c-1.75443,1.2177 -4.18644,1.32776 -6.2212,1.554c-0.90514,0.10064 -1.82711,0.18768 -2.75214,0.25289l0.58724,-1.3472c0,0 0.05306,-1.16524 -1.19694,-1.16524c-0.85114,0 -1.12628,0.58153 -1.21294,0.95139c-3.08683,0.43638 -7.66547,0.21641 -8.7859,-2.94137z" data-paper-data="{&quot;noHover&quot;:false,&quot;origItem&quot;:[&quot;Path&quot;,{&quot;applyMatrix&quot;:true,&quot;segments&quot;:[[[249.20093,193.68259],[-3.08683,0.43638],[0.08666,-0.36986]],[[250.41032,192.73318],[-0.85114,0],[1.25,0]],[251.66032,193.98318],[[251.02164,195.24468],[0,0],[0.92503,-0.06522]],[[253.76902,194.99482],[-0.90514,0.10064],[2.03476,-0.22624]],[[259.98154,193.44879],[-1.75443,1.2177],[2.02054,-1.4024]],[[262.20939,187.70044],[-0.16791,2.19813],[0.37845,-4.95448]],[[259.97797,173.44723],[1.84216,4.59581],[-3.51935,-7.23661]],[[241.04904,164.87229],[7.36058,0],[0,0]],[240.79603,164.87229],[[239.54603,163.62229],[0,1.25],[0,-1.02636]],[[240.69031,162.37945],[-0.30155,0.03285],[-4.91048,-2.05388]],[[225.39266,158.54711],[5.42297,-0.0055],[-1.17382,0.00119]],[[219.61252,162.23586],[-2.33513,-3.23308],[0.82749,1.14568]],[[223.71639,165.26848],[-1.07069,-1.0583],[0.49973,0.52997]],[[225.21558,166.85839],[-0.32102,-0.65387],[2.42335,4.93601]],[[221.03434,179.98814],[0.58328,-4.51478],[-1.11838,8.65663]],[[236.91444,194.51278],[-6.82221,-1.35967],[1.47978,0.29713]],[[241.4465,195.17136],[-1.53522,-0.14513],[-1.43658,-0.73393]],[[238.11739,191.66434],[0.70563,1.64568],[0,0]],[[238.81375,190.0395],[-1.1606,0.46424],[1.1606,-0.46424]],[[240.43859,190.73586],[0,0],[1.12044,3.15777]]],&quot;closed&quot;:true}]}" fill="#ff0000" stroke="none" stroke-width="0.5"/><path d="M229.93175,173.48958c0,-0.69036 0.55964,-1.25 1.25,-1.25c0.01055,0 0.02107,0.00013 0.03155,0.00039c-0.01075,-0.33858 -0.01612,-0.68054 -0.01652,-1.02746c0,0 0,-1.25 1.25,-1.25c1.25,0 1.25,1.25 1.25,1.25c-0.00187,1.50919 0.10107,2.90294 0.34955,4.35688c0.2262,0.18226 0.40948,0.47763 0.40948,0.95627c0,1.25 -1.25,1.25 -1.25,1.25l-1.47873,-1.00485c-0.13842,-0.69434 -0.24667,-1.37323 -0.32826,-2.05001c-0.0705,0.01234 -0.14303,0.01878 -0.21707,0.01878c-0.69036,0 -1.25,-0.55964 -1.25,-1.25z" fill="#000000" stroke="none" stroke-width="0.5"/><path d="M253.91311,174.99977c-0.24515,1.22573 -1.47087,0.98058 -1.47087,0.98058l-0.78192,-0.15638c0,0.14957 0,0.29914 0,0.4487v0.50601c0,0 0,1.25 -1.25,1.25c-1.25,0 -1.25,-1.25 -1.25,-1.25c0,-1.1807 0,-2.86742 0,-4.04812c0,0 0,-1.25 1.25,-1.25c1.25,0 1.25,1.25 1.25,1.25c0,0.18134 0,0.36267 0,0.54401c0.00472,0.00083 0.00717,0.00132 0.00717,0.00132l1.26504,0.25301c0,0 1.22573,0.24515 0.98058,1.47087z" fill="#000000" stroke="none" stroke-width="0.5"/></g></g></svg>