<svg version="1.1" xmlns="http://www.w3.org/2000/svg" xmlns:xlink="http://www.w3.org/1999/xlink" width="110.7495" height="148.03643" viewBox="0,0,110.7495,148.03643"><g transform="translate(-182.62525,-92.81511)"><g data-paper-data="{&quot;isPaintingLayer&quot;:true}" fill-rule="nonzero" stroke-linecap="butt" stroke-linejoin="miter" stroke-miterlimit="10" stroke-dasharray="" stroke-dashoffset="0" style="mix-blend-mode: normal"><g><path d="M232.64085,240.85155l-46.0156,-90.98797l60.7339,-30.71512l46.0156,90.98798z" fill="#dedede" stroke="none" stroke-width="NaN"/><path d="M233.60055,235.82983l-42.36176,-83.76312l55.16065,-27.89655l42.36175,83.76313z" fill="#de8f8f" stroke="none" stroke-width="NaN"/><path d="M234.88314,232.06243l-39.84974,-78.79603l50.08345,-25.32883l39.84973,78.79603z" fill="#de8f8f" stroke="#ffffff" stroke-width="1.5"/></g><g><path d="M230.30751,234.51822l-46.0156,-90.98797l60.73391,-30.71512l46.01559,90.98798z" fill="#dedede" stroke="none" stroke-width="NaN"/><path d="M231.26721,229.49649l-42.36176,-83.76312l55.16065,-27.89655l42.36176,83.76313z" fill="#de8f8f" stroke="none" stroke-width="NaN"/><path d="M232.54981,225.7291l-39.84973,-78.79603l50.08344,-25.32883l39.84973,78.79603z" fill="#de8f8f" stroke="#ffffff" stroke-width="1.5"/></g><g><path d="M230.64085,228.51822l-46.0156,-90.98797l60.7339,-30.71512l46.0156,90.98798z" fill="#dedede" stroke="none" stroke-width="NaN"/><path d="M231.60055,223.49649l-42.36176,-83.76312l55.16065,-27.89655l42.36175,83.76313z" fill="#de8f8f" stroke="none" stroke-width="NaN"/><path d="M232.88314,219.7291l-39.84974,-78.79603l50.08345,-25.32883l39.84973,78.79603z" fill="#de8f8f" stroke="#ffffff" stroke-width="1.5"/></g><g><path d="M230.64085,223.85155l-46.0156,-90.98797l60.7339,-30.71512l46.0156,90.98798z" fill="#dedede" stroke="none" stroke-width="NaN"/><path d="M231.60055,218.82983l-42.36176,-83.76312l55.16065,-27.89655l42.36175,83.76313z" fill="#de8f8f" stroke="none" stroke-width="NaN"/><path d="M232.88314,215.06243l-39.84974,-78.79603l50.08345,-25.32883l39.84973,78.79603z" fill="#de8f8f" stroke="#ffffff" stroke-width="1.5"/></g><g><path d="M228.97418,217.85155l-46.01559,-90.98797l60.7339,-30.71512l46.01559,90.98798z" fill="#dedede" stroke="none" stroke-width="NaN"/><path d="M229.93388,212.82983l-42.36175,-83.76312l55.16064,-27.89655l42.36175,83.76313z" fill="#de8f8f" stroke="none" stroke-width="NaN"/><path d="M231.21648,209.06243l-39.84974,-78.79603l50.08345,-25.32883l39.84973,78.79603z" fill="#de8f8f" stroke="#ffffff" stroke-width="1.5"/></g><g><path d="M228.64085,214.51822l-46.0156,-90.98797l60.7339,-30.71512l46.0156,90.98798z" fill="#dedede" stroke="none" stroke-width="NaN"/><path d="M229.60055,209.49649l-42.36176,-83.76312l55.16065,-27.89654l42.36175,83.76313z" fill="#de8f8f" stroke="none" stroke-width="NaN"/><path d="M230.88314,205.7291l-39.84974,-78.79603l50.08345,-25.32883l39.84973,78.79603z" fill="#de8f8f" stroke="#ffffff" stroke-width="1.5"/></g></g></g></svg>